<?xml version="1.0" encoding="UTF-8" standalone="no"?>
<svg xmlns="http://www.w3.org/2000/svg" xml:space="preserve" version="1.1" xmlns:xlink="http://www.w3.org/1999/xlink" viewBox="0 0 32 32" enable-background="new 0 0 32 32"><path d="m16 0c-8.84 0-16 7.16-16 16s7.16 16 16 16 16-7.16 16-16-7.2-16-16-16zm2.1 19c0.333 0.289 0.592 1.31 0.592 1.78v4.14h-4.73s0.007-1.4 0-2.37c-3.24 0.697-4.14-1.78-4.14-1.78-0.57-1.1-1.16-1.7-1.16-1.7-1.18-0.703 0-0.592 0-0.592 1.18 0 1.78 1.18 1.78 1.18 1.04 1.76 2.89 1.48 3.55 1.18 0-0.592 0.259-1.49 0.592-1.78-2.59-0.291-4.74-1.78-4.74-4.74s0.594-3.55 1.19-4.14c-0.12-0.292-0.615-1.37 0.018-2.96 0 0 1.16 0 2.35 1.78 0.587-0.587 2.37-0.592 2.96-0.592 0.591 0 2.37 0.005 2.96 0.592 1.18-1.78 2.35-1.78 2.35-1.78 0.633 1.59 0.138 2.67 0.018 2.96 0.592 0.592 1.18 1.18 1.18 4.14-0.2 2.9-2.3 4.4-4.9 4.7z"/></svg>
