<?xml version="1.0" encoding="UTF-8" standalone="no"?>
<svg xmlns="http://www.w3.org/2000/svg" xml:space="preserve" version="1.1" xmlns:xlink="http://www.w3.org/1999/xlink" viewBox="0 0 32 32" enable-background="new 0 0 32 32"><path d="m16 0c-8.84 0-16 7.16-16 16s7.16 16 16 16 16-7.16 16-16c0-8.84-7.2-16-16-16zm-4.2 22.3h-3.22v-9.82h3.26v9.8zm-1.6-11.2h-0.021c-1.1 0-1.8-0.755-1.8-1.7 0-0.963 0.73-1.7 1.85-1.7s1.8 0.733 1.82 1.7c0.1 1-0.7 1.7-1.8 1.7zm13.4 11.2h-3.26v-5.25c0-1.32-0.472-2.22-1.65-2.22-0.901 0-1.44 0.607-1.67 1.19-0.086 0.21-0.108 0.503-0.108 0.796v5.48h-3.2s0.043-8.9 0-9.82h3.26v1.39c0.433-0.669 1.21-1.62 2.94-1.62 2.15 0 3.76 1.4 3.76 4.42v5.6z"/></svg>
