<?xml version="1.0" encoding="UTF-8" standalone="no"?>
<svg xmlns="http://www.w3.org/2000/svg" xml:space="preserve" version="1.1" xmlns:xlink="http://www.w3.org/1999/xlink" viewBox="0 0 32 32" enable-background="new 0 0 32 32"><path d="m16 0c-8.84 0-16 7.16-16 16s7.16 16 16 16 16-7.16 16-16-7.2-16-16-16zm5 22.9c-0.71 0.444-1.52 0.72-2.12 0.858-0.591 0.137-1.23 0.207-1.92 0.207-0.719 0-1.41-0.079-2.07-0.296-0.6-0.197-0.935-0.416-1.36-0.779-0.423-0.365-0.629-0.732-0.793-1.14-0.164-0.41-0.266-1.26-0.266-2.04v-5.86h-2.13v-2.7c0.682-0.05 1.25-0.242 1.72-0.648 0.48-0.408 0.864-0.897 1.15-1.47 0.29-0.571 0.322-1.27 0.322-2.15h2.66v4.26h4.26v2.66h-4.26v4.26c0 0.99 0.094 1.78 0.199 2.07 0.105 0.28 0.299 0.504 0.585 0.673 0.379 0.227 0.81 0.341 1.3 0.341 0.865 0 1.87-0.294 2.71-0.949v2.5z"/></svg>
